<?xml version="1.0" encoding="UTF-8"?>
<svg width="81px" height="121px" viewBox="0 0 81 121" version="1.1" xmlns="http://www.w3.org/2000/svg" xmlns:xlink="http://www.w3.org/1999/xlink">
    <!-- Generator: Sketch 47.1 (45422) - http://www.bohemiancoding.com/sketch -->
    <title>logo_falabella_mp</title>
    <desc>Created with Sketch.</desc>
    <defs></defs>
    <g id="Page-1" stroke="none" stroke-width="1" fill="none" fill-rule="evenodd">
        <g id="Falabella-Fullfilment---tecnología" transform="translate(-85.000000, 0.000000)">
            <g id="logo_falabella_mp" transform="translate(85.000000, 0.000000)">
                <g id="Page-1">
                    <polygon id="Fill-1" fill="#AAD500" points="0 120.106236 80.0713342 120.106236 80.0713342 0 0 0"></polygon>
                    <path d="M21.2156905,50.6315419 L34.9397732,50.6315419 L35.7660715,46.8062003 L39.971345,26.3406992 C41.2642156,20.5477329 42.4533014,15.5005475 46.8704305,11.2698636 C49.8838629,8.34337773 53.8166631,6.68496433 58.0127521,6.66935069 C58.0127521,6.66935069 59.6534088,6.68496433 60.6872766,6.82671168 L60.3826576,8.19948733 C60.3826576,8.19948733 58.1293951,7.8813977 56.7486596,8.19948733 C54.9454373,8.63054623 53.9029973,9.38000092 52.6526816,10.6235814 C50.3559459,12.9212355 49.528423,16.4140985 48.0622716,22.6659833 L42.9259966,46.9923394 L42.15205,50.6315419 L57.4197399,50.6315419 L56.8405045,52.7213204 L41.6995606,52.7213204 L32.9216338,93.7426367 C31.634274,99.5297862 30.4350853,104.580952 26.0295898,108.814085 C22.9886039,111.748837 19.0401901,113.410311 14.8122615,113.410311 L13.3770313,113.380309 L13.6244004,112.03876 C14.0640315,112.052843 14.5587695,112.03876 14.9518658,111.981204 C17.2712566,111.648113 18.8757877,110.853655 20.2384604,109.119316 C22.4096747,106.33519 23.3605759,103.66189 24.8334626,97.413985 L34.4891208,52.7213204 L20.6401289,52.7213204 L21.2156905,50.6315419 Z M52.4053125,64.9807825 C52.4053125,62.6929251 54.2562942,60.8398005 56.5469069,60.8398005 C58.8317028,60.8398005 60.6872766,62.6929251 60.6872766,64.9807825 C60.6872766,67.2701706 58.8317028,69.1260506 56.5469069,69.1260506 C54.2562942,69.1260506 52.4053125,67.2701706 52.4053125,64.9807825 L52.4053125,64.9807825 Z" id="Fill-2" fill="#FEFEFE"></path>
                </g>
            </g>
        </g>
    </g>
</svg>